<svg width="37" height="35" viewBox="0 0 37 35" fill="none" xmlns="http://www.w3.org/2000/svg">
    <g filter="url(#filter0_d_401_16)">
        <g clip-path="url(#clip0_401_16)">
            <path
                d="M9.5771 20.2499H25.193V12.4098C25.193 8.04145 21.6973 4.49995 17.3851 4.49995C13.0728 4.49995 9.5771 8.04145 9.5771 12.4098V20.2499ZM17.3851 2.24995C22.9287 2.24995 27.4239 6.79833 27.4239 12.4098V22.4999H7.34625V12.4098C7.34625 6.79833 11.8414 2.24995 17.3851 2.24995ZM14.5965 23.6249H20.1736C20.1736 24.3709 19.8798 25.0862 19.3569 25.6137C18.8339 26.1411 18.1246 26.4374 17.3851 26.4374C16.6455 26.4374 15.9362 26.1411 15.4133 25.6137C14.8903 25.0862 14.5965 24.3709 14.5965 23.6249V23.6249Z"
                fill="white" />
        </g>
        <path
            d="M32.3008 7.87445C32.3008 10.6005 30.1113 12.8003 27.4229 12.8003C24.7345 12.8003 22.545 10.6005 22.545 7.87445C22.545 5.14836 24.7345 2.94865 27.4229 2.94865C30.1113 2.94865 32.3008 5.14836 32.3008 7.87445Z"
            fill="#FF7C7C" stroke="#47BBE1" stroke-width="1.39839" />
    </g>
    <defs>
        <filter id="filter0_d_401_16" x="0" y="0" width="37" height="35"
            filterUnits="userSpaceOnUse" color-interpolation-filters="sRGB">
            <feFlood flood-opacity="0" result="BackgroundImageFix" />
            <feColorMatrix in="SourceAlpha" type="matrix"
                values="0 0 0 0 0 0 0 0 0 0 0 0 0 0 0 0 0 0 127 0" result="hardAlpha" />
            <feOffset dy="4" />
            <feGaussianBlur stdDeviation="2" />
            <feComposite in2="hardAlpha" operator="out" />
            <feColorMatrix type="matrix" values="0 0 0 0 0 0 0 0 0 0 0 0 0 0 0 0 0 0 0.25 0" />
            <feBlend mode="normal" in2="BackgroundImageFix" result="effect1_dropShadow_401_16" />
            <feBlend mode="normal" in="SourceGraphic" in2="effect1_dropShadow_401_16"
                result="shape" />
        </filter>
        <clipPath id="clip0_401_16">
            <rect width="26.7702" height="27" fill="white" transform="translate(4)" />
        </clipPath>
    </defs>
</svg>
